<svg xmlns="http://www.w3.org/2000/svg" fill="none" viewBox="-0.5 -0.5 16 16" id="Customer-Support-3--Streamline-Plump"
     height="16" width="16">
    <desc>Customer Support 3 Streamline Icon: https://streamlinehq.com</desc>
    <g id="customer-support-3--customer-headset-help-microphone-phone-support">
        <path id="Ellipse 28" stroke="#406ff3" stroke-linecap="round" stroke-linejoin="round"
              d="M7.5 14.0625c4.53125 0 6.25 -0.9375 6.25 -4.375" stroke-width="1"></path>
        <path id="Vector" stroke="#406ff3" stroke-linecap="round" stroke-linejoin="round"
              d="M2.1259375 11.182187500000001C1.5996875 11.050625 1.25 10.5703125 1.25 10.028125000000001L1.25 9.0625l0 -0.9650000000000001c0 -0.5425 0.3496875 -1.023125 0.8759375 -1.1546874999999999 0.5081249999999999 -0.12718749999999998 1.175625 -0.27 1.8318750000000001 -0.33875 0.44937499999999997 -0.0471875 0.8450000000000001 0.21625 0.9196875 0.6615625 0.065625 0.38875 0.1225 0.9659375000000001 0.1225 1.796875 0 0.83125 -0.0571875 1.4084374999999998 -0.1225 1.796875 -0.075 0.4453125 -0.47031249999999997 0.70875 -0.9196875 0.661875 -0.65625 -0.06875 -1.32375 -0.211875 -1.8318750000000001 -0.3390625Z"
              stroke-width="1"></path>
        <path id="Vector_2" stroke="#406ff3" stroke-linecap="round" stroke-linejoin="round"
              d="M12.8740625 11.182187500000001C13.4003125 11.050625 13.75 10.5703125 13.75 10.028125000000001L13.75 9.0625l0 -0.9650000000000001c0 -0.5425 -0.3496875 -1.023125 -0.8759375 -1.1546874999999999 -0.5081249999999999 -0.12718749999999998 -1.175625 -0.27 -1.8318750000000001 -0.33875 -0.44937499999999997 -0.0471875 -0.8450000000000001 0.21625 -0.9196875 0.6615625C10.056875000000002 7.654375 10 8.2315625 10 9.0625c0 0.83125 0.0571875 1.4084374999999998 0.1225 1.796875 0.075 0.4453125 0.47031249999999997 0.70875 0.9196875 0.661875 0.65625 -0.06875 1.32375 -0.211875 1.8318750000000001 -0.3390625Z"
              stroke-width="1"></path>
        <path id="Subtract" stroke="#406ff3" stroke-linecap="round" stroke-linejoin="round"
              d="M13.75 8.0971875V7.1875c0 -3.451875 -2.798125 -6.25 -6.25 -6.25S1.25 3.735625 1.25 7.1875v0.9096875m10.611250000000002 -1.374375C11.683125 4.534375 9.79875 2.8125 7.5 2.8125c-2.2984375000000004 0 -4.1831249999999995 1.7218749999999998 -4.36125 3.9103125"
              stroke-width="1"></path>
    </g>
</svg>